<?xml version="1.0" encoding="UTF-8" standalone="no"?>
<!DOCTYPE svg PUBLIC "-//W3C//DTD SVG 20010904//EN"
              "http://www.w3.org/TR/2001/REC-SVG-20010904/DTD/svg10.dtd">

<svg xmlns="http://www.w3.org/2000/svg"
     width="8.26667in" height="8.26667in"
     viewBox="0 0 2480 2480">
  <path id="circle"
        fill="#F49F00" stroke="black" stroke-width="1"
        d="M 1194.00,0.14
           C 1194.00,0.14 1228.00,0.14 1228.00,0.14
             1228.00,0.14 1278.00,0.14 1278.00,0.14
             1278.00,0.14 1313.00,2.00 1313.00,2.00
             1313.00,2.00 1336.00,4.00 1336.00,4.00
             1336.00,4.00 1344.00,4.00 1344.00,4.00
             1344.00,4.00 1379.00,7.84 1379.00,7.84
             1439.07,14.26 1498.59,25.76 1557.00,41.12
             1777.03,98.95 1979.70,218.58 2136.96,383.00
             2289.08,542.05 2396.16,741.06 2446.88,955.00
             2461.18,1015.29 2469.21,1069.50 2475.17,1131.00
             2475.17,1131.00 2479.09,1178.00 2479.09,1178.00
             2479.09,1178.00 2480.00,1188.00 2480.00,1188.00
             2480.00,1188.00 2480.00,1290.00 2480.00,1290.00
             2480.00,1290.00 2479.09,1302.00 2479.09,1302.00
             2479.09,1302.00 2472.16,1379.00 2472.16,1379.00
             2462.68,1467.69 2441.90,1559.73 2412.66,1644.00
             2354.23,1812.35 2260.23,1968.12 2136.96,2097.00
             1996.91,2243.43 1816.23,2357.90 1623.00,2419.66
             1543.70,2445.00 1461.82,2463.30 1379.00,2472.16
             1379.00,2472.16 1302.00,2479.09 1302.00,2479.09
             1302.00,2479.09 1290.00,2480.00 1290.00,2480.00
             1290.00,2480.00 1188.00,2480.00 1188.00,2480.00
             1188.00,2480.00 1178.00,2479.09 1178.00,2479.09
             1178.00,2479.09 1101.00,2472.16 1101.00,2472.16
             1009.92,2462.42 914.28,2440.39 828.00,2409.69
             691.09,2360.97 566.54,2291.82 454.00,2199.58
             361.59,2123.83 283.78,2038.32 216.02,1940.00
             122.45,1804.22 56.51,1645.60 24.20,1484.00
             16.64,1446.19 10.94,1408.33 6.84,1370.00
             6.84,1370.00 3.83,1336.00 3.83,1336.00
             3.83,1336.00 2.00,1308.00 2.00,1308.00
             2.00,1308.00 0.00,1278.00 0.00,1278.00
             0.00,1278.00 0.00,1202.00 0.00,1202.00
             0.00,1202.00 2.00,1167.00 2.00,1167.00
             2.00,1167.00 3.91,1143.00 3.91,1143.00
             6.08,1111.49 10.12,1080.26 14.73,1049.00
             32.46,928.62 72.31,805.39 125.26,696.00
             221.53,497.09 377.22,320.36 563.00,200.69
             598.96,177.52 635.98,155.87 674.00,136.26
             674.00,136.26 706.00,120.74 706.00,120.74
             754.48,97.28 805.68,76.75 857.00,60.34
             925.97,38.30 1000.18,20.73 1072.00,11.28
             1072.00,11.28 1150.00,3.09 1150.00,3.09
             1150.00,3.09 1182.00,1.09 1182.00,1.09
             1182.00,1.09 1194.00,0.14 1194.00,0.14 Z" />
  <path id="I"
        fill="#000" stroke="black" stroke-width="1"
        d="M 1494.16,446.21
           C 1500.30,446.21 1503.37,450.05 1503.37,457.74
             1503.37,457.74 1503.37,518.88 1503.37,518.88
             1503.37,526.57 1500.30,530.41 1494.16,530.41
             1494.16,530.41 1333.82,550.03 1333.82,550.03
             1327.67,550.03 1324.61,553.88 1324.61,561.56
             1324.61,561.56 1324.61,1920.48 1324.61,1920.48
             1324.61,1928.17 1327.67,1932.01 1333.82,1932.01
             1333.82,1932.01 1494.16,1950.47 1494.16,1950.47
             1500.30,1950.47 1503.37,1954.70 1503.37,1963.16
             1503.37,1963.16 1503.37,2024.30 1503.37,2024.30
             1503.37,2031.99 1500.30,2035.83 1494.16,2035.83
             1494.16,2035.83 986.43,2035.83 986.43,2035.83
             980.29,2035.83 977.21,2031.99 977.21,2024.30
             977.21,2024.30 977.21,1963.16 977.21,1963.16
             977.21,1954.70 980.29,1950.47 986.43,1950.47
             986.43,1950.47 1146.76,1932.01 1146.76,1932.01
             1152.90,1932.01 1155.97,1928.17 1155.97,1920.48
             1155.97,1920.48 1155.97,561.56 1155.97,561.56
             1155.97,553.88 1152.90,550.03 1146.76,550.03
             1146.76,550.03 986.43,530.41 986.43,530.41
             980.29,530.41 977.21,526.57 977.21,518.88
             977.21,518.88 977.21,457.74 977.21,457.74
             977.21,450.05 980.29,446.21 986.43,446.21
             986.43,446.21 1494.16,446.21 1494.16,446.21 Z" />
</svg>
