<?xml version="1.0" encoding="UTF-8" standalone="no"?>
<!DOCTYPE svg PUBLIC "-//W3C//DTD SVG 20010904//EN"
              "http://www.w3.org/TR/2001/REC-SVG-20010904/DTD/svg10.dtd">

<svg xmlns="http://www.w3.org/2000/svg"
     width="8.26667in" height="8.26667in"
     viewBox="0 0 2480 2480">
  <path id="円"
        fill="#00a53c" stroke="black" stroke-width="1"
        d="M 1194.00,0.14
           C 1194.00,0.14 1228.00,0.14 1228.00,0.14
             1228.00,0.14 1278.00,0.14 1278.00,0.14
             1278.00,0.14 1313.00,2.00 1313.00,2.00
             1313.00,2.00 1336.00,4.00 1336.00,4.00
             1336.00,4.00 1344.00,4.00 1344.00,4.00
             1344.00,4.00 1379.00,7.84 1379.00,7.84
             1439.07,14.26 1498.59,25.76 1557.00,41.12
             1777.03,98.95 1979.70,218.58 2136.96,383.00
             2289.08,542.05 2396.16,741.06 2446.88,955.00
             2461.18,1015.29 2469.21,1069.50 2475.17,1131.00
             2475.17,1131.00 2479.09,1178.00 2479.09,1178.00
             2479.09,1178.00 2480.00,1188.00 2480.00,1188.00
             2480.00,1188.00 2480.00,1290.00 2480.00,1290.00
             2480.00,1290.00 2479.09,1302.00 2479.09,1302.00
             2479.09,1302.00 2472.16,1379.00 2472.16,1379.00
             2462.68,1467.69 2441.90,1559.73 2412.66,1644.00
             2354.23,1812.35 2260.23,1968.12 2136.96,2097.00
             1996.91,2243.43 1816.23,2357.90 1623.00,2419.66
             1543.70,2445.00 1461.82,2463.30 1379.00,2472.16
             1379.00,2472.16 1302.00,2479.09 1302.00,2479.09
             1302.00,2479.09 1290.00,2480.00 1290.00,2480.00
             1290.00,2480.00 1188.00,2480.00 1188.00,2480.00
             1188.00,2480.00 1178.00,2479.09 1178.00,2479.09
             1178.00,2479.09 1101.00,2472.16 1101.00,2472.16
             1009.92,2462.42 914.28,2440.39 828.00,2409.69
             691.09,2360.97 566.54,2291.82 454.00,2199.58
             361.59,2123.83 283.78,2038.32 216.02,1940.00
             122.45,1804.22 56.51,1645.60 24.20,1484.00
             16.64,1446.19 10.94,1408.33 6.84,1370.00
             6.84,1370.00 3.83,1336.00 3.83,1336.00
             3.83,1336.00 2.00,1308.00 2.00,1308.00
             2.00,1308.00 0.00,1278.00 0.00,1278.00
             0.00,1278.00 0.00,1202.00 0.00,1202.00
             0.00,1202.00 2.00,1167.00 2.00,1167.00
             2.00,1167.00 3.91,1143.00 3.91,1143.00
             6.08,1111.49 10.12,1080.26 14.73,1049.00
             32.46,928.62 72.31,805.39 125.26,696.00
             221.53,497.09 377.22,320.36 563.00,200.69
             598.96,177.52 635.98,155.87 674.00,136.26
             674.00,136.26 706.00,120.74 706.00,120.74
             754.48,97.28 805.68,76.75 857.00,60.34
             925.97,38.30 1000.18,20.73 1072.00,11.28
             1072.00,11.28 1150.00,3.09 1150.00,3.09
             1150.00,3.09 1182.00,1.09 1182.00,1.09
             1182.00,1.09 1194.00,0.14 1194.00,0.14 Z" />
  <path id="C"
        fill="#fff" stroke="black" stroke-width="1"
        d="M 1389.85,516.55
           C 1290.32,516.55 1197.30,531.97 1110.79,562.80
             1024.28,593.62 949.19,639.64 885.53,700.86
             821.88,762.07 771.67,838.05 734.92,928.79
             698.17,1019.53 679.80,1125.24 679.80,1245.93
             679.80,1365.76 696.83,1469.74 730.89,1557.88
             764.96,1646.01 813.37,1718.95 876.12,1776.69
             938.89,1834.42 1014.42,1877.19 1102.72,1904.97
             1191.03,1932.76 1289.43,1946.65 1397.91,1946.65
             1427.50,1946.65 1458.88,1945.13 1492.04,1942.10
             1525.21,1939.05 1558.60,1934.71 1592.22,1929.07
             1625.85,1923.42 1658.57,1916.91 1690.39,1909.54
             1722.22,1902.16 1750.69,1894.12 1775.80,1885.43
             1775.80,1885.43 1775.80,2072.99 1775.80,2072.99
             1722.90,2092.96 1661.49,2108.36 1591.56,2119.21
             1521.63,2130.07 1449.91,2135.51 1376.40,2135.51
             1226.68,2135.51 1093.99,2115.32 978.34,2074.94
             862.68,2034.56 765.63,1976.60 687.19,1901.06
             608.74,1825.52 549.34,1733.26 508.99,1624.29
             468.65,1515.33 448.48,1391.81 448.48,1253.74
             448.48,1118.29 469.77,993.69 512.36,879.95
             554.94,766.20 616.35,668.52 696.60,586.90
             776.84,505.27 874.11,441.67 988.42,396.08
             1102.73,350.49 1231.15,327.70 1373.70,327.70
             1411.36,327.70 1448.57,329.22 1485.33,332.26
             1522.08,335.30 1557.27,339.64 1590.89,345.29
             1624.50,350.94 1655.66,357.66 1684.35,365.48
             1713.04,373.30 1737.69,381.54 1758.31,390.21
             1758.31,390.21 1758.31,577.77 1758.31,577.77
             1704.52,560.41 1645.80,545.87 1582.15,534.15
             1518.50,522.42 1454.40,516.55 1389.85,516.55 Z" />
</svg>
